<svg width="20" height="21" viewBox="0 0 20 21" fill="none" xmlns="http://www.w3.org/2000/svg">
<path d="M18.75 3.41663H18.3334V15.085C18.3334 15.5445 17.9579 15.9166 17.4979 15.9166C12.5084 15.9162 10.5338 17.3904 10.515 17.405L9.99585 17.8041L9.48502 17.405C9.46627 17.3904 7.49169 15.9162 2.5021 15.9166C2.0421 15.9166 1.66669 15.5445 1.66669 15.085L1.66669 3.41663H1.25002C0.789604 3.41663 0.416687 3.78954 0.416687 4.24996L0.416687 18.4166C0.416687 18.877 0.789604 19.25 1.25002 19.25H18.75C19.2104 19.25 19.5834 18.877 19.5834 18.4166V4.24996C19.5834 3.78954 19.2104 3.41663 18.75 3.41663Z" fill="url(#paint0_linear)"/>
<path d="M9.58333 3.15246C8.7725 2.69954 6.71625 1.81579 2.925 1.75329C2.69292 1.74954 2.5 1.93996 2.5 2.17204L2.5 14.672C2.5 14.9 2.68625 15.0829 2.91417 15.0866C6.71167 15.1475 8.77125 16.0325 9.58333 16.4858V3.15246Z" fill="url(#paint1_linear)"/>
<path d="M17.075 1.75329C13.2838 1.81579 11.2275 2.69954 10.4167 3.15246V16.4858C11.2288 16.0325 13.2884 15.1475 17.0859 15.0866C17.3138 15.0829 17.5 14.9 17.5 14.672V2.17204C17.5 1.93996 17.3071 1.74954 17.075 1.75329Z" fill="url(#paint2_linear)"/>
<defs>
<linearGradient id="paint0_linear" x1="10" y1="3.41663" x2="10" y2="19.25" gradientUnits="userSpaceOnUse">
<stop stop-color="white"/>
<stop offset="1" stop-color="white"/>
</linearGradient>
<linearGradient id="paint1_linear" x1="6.04167" y1="1.75323" x2="6.04167" y2="16.4858" gradientUnits="userSpaceOnUse">
<stop stop-color="white"/>
<stop offset="1" stop-color="white"/>
</linearGradient>
<linearGradient id="paint2_linear" x1="13.9584" y1="1.75323" x2="13.9584" y2="16.4858" gradientUnits="userSpaceOnUse">
<stop stop-color="white"/>
<stop offset="1" stop-color="white"/>
</linearGradient>
</defs>
</svg>
